<?xml version="1.0" encoding="UTF-8" standalone="no"?><!-- Generator: Gravit.io --><svg xmlns="http://www.w3.org/2000/svg" xmlns:xlink="http://www.w3.org/1999/xlink" style="isolation:isolate" viewBox="0 0 128 128" width="128pt" height="128pt"><defs><clipPath id="_clipPath_Yx3AZseY4CtsS3VPOfJd09PaGmYtDGtY"><rect width="128" height="128"/></clipPath></defs><g clip-path="url(#_clipPath_Yx3AZseY4CtsS3VPOfJd09PaGmYtDGtY)"><path d=" M 45.008 42.386 L 38.455 38.927 L 50.846 9.6 L 62.228 15.607 L 45.008 42.386 Z " fill="#eae6ca"/><mask id="_mask_XXAmOg1CdIYSFSR7CmSG7rgJTGFIxnDA"><path d=" M 84.395 91 L 84.395 91 L 84.395 91 Q 76.589 91 70.003 88.268 L 70.003 88.268 L 70.003 88.268 Q 63.417 85.536 58.44 80.657 L 58.44 80.657 L 58.44 80.657 Q 53.464 75.778 50.732 69.29 L 50.732 69.29 L 50.732 69.29 Q 48 62.801 48 55.288 L 48 55.288 L 48 55.288 Q 48 47.677 50.732 41.237 L 50.732 41.237 L 50.732 41.237 Q 53.464 34.797 58.343 29.967 L 58.343 29.967 L 58.343 29.967 Q 63.222 25.137 69.808 22.454 L 69.808 22.454 L 69.808 22.454 Q 76.394 19.771 84.2 19.771 L 84.2 19.771 L 84.2 19.771 Q 91.908 19.771 98.495 22.454 L 98.495 22.454 L 98.495 22.454 Q 105.081 25.137 110.008 29.967 L 110.008 29.967 L 110.008 29.967 Q 114.936 34.797 117.668 41.286 L 117.668 41.286 L 117.668 41.286 Q 120.4 47.775 120.4 55.385 L 120.4 55.385 L 120.4 55.385 Q 120.4 62.899 117.668 69.387 L 117.668 69.387 L 117.668 69.387 Q 114.936 75.876 110.057 80.706 L 110.057 80.706 L 110.057 80.706 Q 105.178 85.536 98.592 88.268 L 98.592 88.268 L 98.592 88.268 Q 92.006 91 84.395 91 Z  M 84.2 77.047 L 84.2 77.047 L 84.2 77.047 Q 90.347 77.047 94.982 74.315 L 94.982 74.315 L 94.982 74.315 Q 99.617 71.583 102.154 66.655 L 102.154 66.655 L 102.154 66.655 Q 104.691 61.728 104.691 55.288 L 104.691 55.288 L 104.691 55.288 Q 104.691 50.409 103.227 46.457 L 103.227 46.457 L 103.227 46.457 Q 101.763 42.506 99.031 39.627 L 99.031 39.627 L 99.031 39.627 Q 96.299 36.749 92.543 35.236 L 92.543 35.236 L 92.543 35.236 Q 88.786 33.724 84.2 33.724 L 84.2 33.724 L 84.2 33.724 Q 78.053 33.724 73.418 36.407 L 73.418 36.407 L 73.418 36.407 Q 68.783 39.091 66.246 43.92 L 66.246 43.92 L 66.246 43.92 Q 63.709 48.75 63.709 55.288 L 63.709 55.288 L 63.709 55.288 Q 63.709 60.167 65.173 64.167 L 65.173 64.167 L 65.173 64.167 Q 66.637 68.168 69.32 71.046 L 69.32 71.046 L 69.32 71.046 Q 72.003 73.925 75.809 75.486 L 75.809 75.486 L 75.809 75.486 Q 79.614 77.047 84.2 77.047 Z " fill="#eae6ca" stroke="none"/></mask><path d=" M 84.395 91 L 84.395 91 L 84.395 91 Q 76.589 91 70.003 88.268 L 70.003 88.268 L 70.003 88.268 Q 63.417 85.536 58.44 80.657 L 58.44 80.657 L 58.44 80.657 Q 53.464 75.778 50.732 69.29 L 50.732 69.29 L 50.732 69.29 Q 48 62.801 48 55.288 L 48 55.288 L 48 55.288 Q 48 47.677 50.732 41.237 L 50.732 41.237 L 50.732 41.237 Q 53.464 34.797 58.343 29.967 L 58.343 29.967 L 58.343 29.967 Q 63.222 25.137 69.808 22.454 L 69.808 22.454 L 69.808 22.454 Q 76.394 19.771 84.2 19.771 L 84.2 19.771 L 84.2 19.771 Q 91.908 19.771 98.495 22.454 L 98.495 22.454 L 98.495 22.454 Q 105.081 25.137 110.008 29.967 L 110.008 29.967 L 110.008 29.967 Q 114.936 34.797 117.668 41.286 L 117.668 41.286 L 117.668 41.286 Q 120.4 47.775 120.4 55.385 L 120.4 55.385 L 120.4 55.385 Q 120.4 62.899 117.668 69.387 L 117.668 69.387 L 117.668 69.387 Q 114.936 75.876 110.057 80.706 L 110.057 80.706 L 110.057 80.706 Q 105.178 85.536 98.592 88.268 L 98.592 88.268 L 98.592 88.268 Q 92.006 91 84.395 91 Z  M 84.2 77.047 L 84.2 77.047 L 84.2 77.047 Q 90.347 77.047 94.982 74.315 L 94.982 74.315 L 94.982 74.315 Q 99.617 71.583 102.154 66.655 L 102.154 66.655 L 102.154 66.655 Q 104.691 61.728 104.691 55.288 L 104.691 55.288 L 104.691 55.288 Q 104.691 50.409 103.227 46.457 L 103.227 46.457 L 103.227 46.457 Q 101.763 42.506 99.031 39.627 L 99.031 39.627 L 99.031 39.627 Q 96.299 36.749 92.543 35.236 L 92.543 35.236 L 92.543 35.236 Q 88.786 33.724 84.2 33.724 L 84.2 33.724 L 84.2 33.724 Q 78.053 33.724 73.418 36.407 L 73.418 36.407 L 73.418 36.407 Q 68.783 39.091 66.246 43.92 L 66.246 43.92 L 66.246 43.92 Q 63.709 48.75 63.709 55.288 L 63.709 55.288 L 63.709 55.288 Q 63.709 60.167 65.173 64.167 L 65.173 64.167 L 65.173 64.167 Q 66.637 68.168 69.32 71.046 L 69.32 71.046 L 69.32 71.046 Q 72.003 73.925 75.809 75.486 L 75.809 75.486 L 75.809 75.486 Q 79.614 77.047 84.2 77.047 Z " fill="#eae6ca"/><path d=" M 84.395 91 L 84.395 91 L 84.395 91 Q 76.589 91 70.003 88.268 L 70.003 88.268 L 70.003 88.268 Q 63.417 85.536 58.44 80.657 L 58.44 80.657 L 58.44 80.657 Q 53.464 75.778 50.732 69.29 L 50.732 69.29 L 50.732 69.29 Q 48 62.801 48 55.288 L 48 55.288 L 48 55.288 Q 48 47.677 50.732 41.237 L 50.732 41.237 L 50.732 41.237 Q 53.464 34.797 58.343 29.967 L 58.343 29.967 L 58.343 29.967 Q 63.222 25.137 69.808 22.454 L 69.808 22.454 L 69.808 22.454 Q 76.394 19.771 84.2 19.771 L 84.2 19.771 L 84.2 19.771 Q 91.908 19.771 98.495 22.454 L 98.495 22.454 L 98.495 22.454 Q 105.081 25.137 110.008 29.967 L 110.008 29.967 L 110.008 29.967 Q 114.936 34.797 117.668 41.286 L 117.668 41.286 L 117.668 41.286 Q 120.4 47.775 120.4 55.385 L 120.4 55.385 L 120.4 55.385 Q 120.4 62.899 117.668 69.387 L 117.668 69.387 L 117.668 69.387 Q 114.936 75.876 110.057 80.706 L 110.057 80.706 L 110.057 80.706 Q 105.178 85.536 98.592 88.268 L 98.592 88.268 L 98.592 88.268 Q 92.006 91 84.395 91 Z  M 84.2 77.047 L 84.2 77.047 L 84.2 77.047 Q 90.347 77.047 94.982 74.315 L 94.982 74.315 L 94.982 74.315 Q 99.617 71.583 102.154 66.655 L 102.154 66.655 L 102.154 66.655 Q 104.691 61.728 104.691 55.288 L 104.691 55.288 L 104.691 55.288 Q 104.691 50.409 103.227 46.457 L 103.227 46.457 L 103.227 46.457 Q 101.763 42.506 99.031 39.627 L 99.031 39.627 L 99.031 39.627 Q 96.299 36.749 92.543 35.236 L 92.543 35.236 L 92.543 35.236 Q 88.786 33.724 84.2 33.724 L 84.2 33.724 L 84.2 33.724 Q 78.053 33.724 73.418 36.407 L 73.418 36.407 L 73.418 36.407 Q 68.783 39.091 66.246 43.92 L 66.246 43.92 L 66.246 43.92 Q 63.709 48.75 63.709 55.288 L 63.709 55.288 L 63.709 55.288 Q 63.709 60.167 65.173 64.167 L 65.173 64.167 L 65.173 64.167 Q 66.637 68.168 69.32 71.046 L 69.32 71.046 L 69.32 71.046 Q 72.003 73.925 75.809 75.486 L 75.809 75.486 L 75.809 75.486 Q 79.614 77.047 84.2 77.047 Z " fill="#eae6ca" mask="url(#_mask_XXAmOg1CdIYSFSR7CmSG7rgJTGFIxnDA)" vector-effect="non-scaling-stroke" stroke-width="40" stroke="#eae6ca" stroke-linejoin="miter" stroke-linecap="square" stroke-miterlimit="3"/><path d=" M 80.7 115.5 L 80.7 115.5 L 28.35 115.5 L 33.75 115.5 L 33.75 115.5 L 18 115.5 L 10.2 115.5 L 10.2 9.6 L 33.75 9.6 L 33.75 94.8 L 33.75 94.8 L 80.7 94.8 L 80.833 94.8 L 80.833 94.8 L 80.833 94.8 L 120.4 94.8 L 120.4 115.5 L 90 115.5 L 80.833 115.5 L 80.7 115.5 Z  M 28.35 94.8 L 28.35 94.8 L 80.7 94.8 L 80.7 94.8 L 80.7 94.8 L 28.35 94.8 Z " fill-rule="evenodd" fill="#eae6ca"/></g></svg>
